<?xml version="1.0" encoding="UTF-8" standalone="no"?>
<!DOCTYPE svg PUBLIC "-//W3C//DTD SVG 1.1//EN" "http://www.w3.org/Graphics/SVG/1.1/DTD/svg11.dtd">
<svg width="100%" height="100%" viewBox="0 0 196 196" version="1.1" style="fill-rule:evenodd;clip-rule:evenodd;stroke-linejoin:round;stroke-miterlimit:2;">
    <g transform="matrix(1.04706,0,0,0.91411,-1.47059,-9.28221)">
        <path d="M180,41.5C180,29.634 171.589,20 161.23,20L28.77,20C18.411,20 10,29.634 10,41.5C10,53.366 18.411,63 28.77,63L161.23,63C171.589,63 180,53.366 180,41.5Z"/>
    </g>
    <g transform="matrix(1.04706,0,0,0.91411,-1.47059,59.5644)">
        <path d="M180,41.5C180,29.634 171.589,20 161.23,20L28.77,20C18.411,20 10,29.634 10,41.5C10,53.366 18.411,63 28.77,63L161.23,63C171.589,63 180,53.366 180,41.5Z"/>
    </g>
    <g transform="matrix(1.04706,0,0,0.91411,-1.47059,128.411)">
        <path d="M180,41.5C180,29.634 171.589,20 161.23,20L28.77,20C18.411,20 10,29.634 10,41.5C10,53.366 18.411,63 28.77,63L161.23,63C171.589,63 180,53.366 180,41.5Z"/>
    </g>
</svg>
