<?xml version="1.0" encoding="UTF-8" standalone="no"?>
<!DOCTYPE svg PUBLIC "-//W3C//DTD SVG 1.1//EN" "http://www.w3.org/Graphics/SVG/1.1/DTD/svg11.dtd">
<svg width="100%" height="100%" viewBox="0 0 196 196" version="1.1" style="fill-rule:evenodd;clip-rule:evenodd;stroke-linejoin:round;stroke-miterlimit:2;">
    <path d="M101,17.158C133.694,20.151 158,42.493 158,75C158,101.656 135.609,141.215 101,177.897L100,178.953L99,177.897C64.391,141.215 42,101.656 42,75C42,42.493 66.306,20.151 99,17.158C99.641,17.113 100.306,17.111 101,17.158ZM100,54C111.038,54 120,62.962 120,74C120,85.038 111.038,94 100,94C88.962,94 80,85.038 80,74C80,62.962 88.962,54 100,54Z"/>
</svg>
