<?xml version="1.0" encoding="UTF-8" standalone="no"?>
<!DOCTYPE svg PUBLIC "-//W3C//DTD SVG 1.1//EN" "http://www.w3.org/Graphics/SVG/1.1/DTD/svg11.dtd">
<svg width="100%" height="100%" viewBox="0 0 96 96" version="1.1" style="fill-rule:evenodd;clip-rule:evenodd;stroke-linejoin:round;stroke-miterlimit:2;">
    <g transform="matrix(1.107,0,0,2.0266,-10.6362,-10.265)">
        <path d="M95.851,24.655L10.17,24.646L45.851,9.238L45.851,17.435L92.08,17.435C93.08,17.435 94.039,17.652 94.746,18.039C95.453,18.425 95.851,18.949 95.851,19.495C95.851,21.629 95.851,24.655 95.851,24.655Z"/>
    </g>
    <g transform="matrix(-1.107,-1.35569e-16,2.48187e-16,-2.0266,106.729,105.423)">
        <path d="M95.851,24.655L10.17,24.646L45.851,9.238L45.851,17.435L92.08,17.435C93.08,17.435 94.039,17.652 94.746,18.039C95.453,18.425 95.851,18.949 95.851,19.495C95.851,21.629 95.851,24.655 95.851,24.655Z"/>
    </g>
</svg>
