<?xml version="1.0" encoding="UTF-8" standalone="no"?>
<!DOCTYPE svg PUBLIC "-//W3C//DTD SVG 1.1//EN" "http://www.w3.org/Graphics/SVG/1.1/DTD/svg11.dtd">
<svg width="100%" height="100%" viewBox="0 0 96 96" version="1.1" style="fill-rule:evenodd;clip-rule:evenodd;stroke-linejoin:round;stroke-miterlimit:2;">
    <g transform="matrix(-0.707107,0.707107,0.707107,0.707107,67.1416,-39.268)">
        <path d="M56.42,16.722C56.42,14.536 54.646,12.762 52.46,12.762L44.539,12.762C42.353,12.762 40.579,14.536 40.579,16.722L40.579,78.953C40.579,81.139 42.353,82.913 44.539,82.913L52.46,82.913C54.646,82.913 56.42,81.139 56.42,78.953L56.42,16.722Z"/>
    </g>
    <g transform="matrix(-0.707107,-0.707107,-0.707107,0.707107,134.893,67.6594)">
        <path d="M56.42,16.722C56.42,14.536 54.646,12.762 52.46,12.762L44.539,12.762C42.353,12.762 40.579,14.536 40.579,16.722L40.579,78.953C40.579,81.139 42.353,82.913 44.539,82.913L52.46,82.913C54.646,82.913 56.42,81.139 56.42,78.953L56.42,16.722Z"/>
    </g>
    <g transform="matrix(-6.12323e-17,-1,-1,6.12323e-17,88.5169,96.5769)">
        <path d="M56.42,16.722C56.42,14.536 54.646,12.762 52.46,12.762L44.539,12.762C42.353,12.762 40.579,14.536 40.579,16.722L40.579,78.953C40.579,81.139 42.353,82.913 44.539,82.913L52.46,82.913C54.646,82.913 56.42,81.139 56.42,78.953L56.42,16.722Z"/>
    </g>
</svg>
