<?xml version="1.0" encoding="UTF-8" standalone="no"?>
<!DOCTYPE svg PUBLIC "-//W3C//DTD SVG 1.1//EN" "http://www.w3.org/Graphics/SVG/1.1/DTD/svg11.dtd">
<svg width="100%" height="100%" viewBox="0 0 196 196" version="1.1" style="fill-rule:evenodd;clip-rule:evenodd;stroke-linejoin:round;stroke-miterlimit:2;">
    <g transform="matrix(1,0,0,1,-1,0)">
        <path d="M37.493,107.044L87.58,157.131C91.373,160.925 91.373,167.075 87.58,170.869C87.579,170.869 87.579,170.87 87.579,170.87C83.789,174.659 77.647,174.664 73.852,170.881C54.171,151.263 18.096,115.366 4.175,101.489C3.338,100.655 2.868,99.523 2.868,98.341C2.868,97.16 3.338,96.028 4.175,95.194C18.159,81.253 54.681,44.911 74.118,25.537C77.766,21.9 83.671,21.905 87.313,25.547C87.491,25.725 87.668,25.902 87.846,26.08C89.597,27.831 90.581,30.206 90.581,32.683C90.581,35.159 89.597,37.534 87.846,39.286L37.255,89.877L186.104,89.877C190.805,89.877 194.616,93.687 194.616,98.388C194.616,98.436 194.616,98.484 194.616,98.532C194.616,103.233 190.805,107.044 186.104,107.044L37.493,107.044Z"/>
    </g>
</svg>
