<?xml version="1.0" encoding="UTF-8" standalone="no"?>
<!DOCTYPE svg PUBLIC "-//W3C//DTD SVG 1.1//EN" "http://www.w3.org/Graphics/SVG/1.1/DTD/svg11.dtd">
<svg width="100%" height="100%" viewBox="0 0 196 196" version="1.1" style="fill-rule:evenodd;clip-rule:evenodd;stroke-linejoin:round;stroke-miterlimit:2;">
    <path d="M127.659,98.341C127.659,98.341 69.199,156.801 48.869,177.131C45.075,180.925 45.075,187.075 48.869,190.869C48.869,190.869 48.87,190.87 48.87,190.87C52.659,194.659 58.801,194.664 62.597,190.881C82.278,171.263 138.353,115.366 152.274,101.489C153.111,100.655 153.581,99.523 153.581,98.341C153.581,97.16 153.111,96.028 152.274,95.194C138.289,81.253 81.767,24.911 62.331,5.537C58.682,1.9 52.778,1.905 49.136,5.547C48.958,5.725 48.78,5.902 48.603,6.08C46.852,7.831 45.868,10.206 45.868,12.683C45.868,15.159 46.852,17.534 48.603,19.286C68.684,39.366 127.659,98.341 127.659,98.341Z"/>
</svg>
