<?xml version="1.0" encoding="UTF-8" standalone="no"?>
<!DOCTYPE svg PUBLIC "-//W3C//DTD SVG 1.1//EN" "http://www.w3.org/Graphics/SVG/1.1/DTD/svg11.dtd">
<svg width="100%" height="100%" viewBox="0 0 96 96" version="1.1" style="fill-rule:evenodd;clip-rule:evenodd;stroke-linejoin:round;stroke-miterlimit:2;">
    <path d="M48,0C74.492,0 96,21.508 96,48C96,74.492 74.492,96 48,96C21.508,96 0,74.492 0,48C0,21.508 21.508,0 48,0ZM36.686,48L20.423,64.263C18.862,65.825 18.862,68.359 20.423,69.92L26.08,75.577C27.641,77.138 30.175,77.138 31.737,75.577L48,59.314L64.263,75.577C65.825,77.138 68.359,77.138 69.92,75.577L75.577,69.92C77.138,68.359 77.138,65.825 75.577,64.263L59.314,48L75.577,31.737C77.138,30.175 77.138,27.641 75.577,26.08L69.92,20.423C68.359,18.862 65.825,18.862 64.263,20.423L48,36.686L31.737,20.423C30.175,18.862 27.641,18.862 26.08,20.423L20.423,26.08C18.862,27.641 18.862,30.175 20.423,31.737L36.686,48Z"/>
</svg>
