<?xml version="1.0" encoding="UTF-8" standalone="no"?>
<!DOCTYPE svg PUBLIC "-//W3C//DTD SVG 1.1//EN" "http://www.w3.org/Graphics/SVG/1.1/DTD/svg11.dtd">
<svg width="100%" height="100%" viewBox="0 0 196 196" version="1.1" style="fill-rule:evenodd;clip-rule:evenodd;stroke-linejoin:round;stroke-miterlimit:2;">
    <path d="M100.627,103.247C100.654,103.236 100.685,103.24 100.707,103.259C100.729,103.277 100.74,103.306 100.735,103.334C100.201,106.198 91.773,151.435 89.328,164.204C89.203,164.856 89.45,165.524 89.968,165.939C90.486,166.354 91.192,166.448 91.801,166.184C93.142,165.602 94.776,164.893 96.407,164.185C101.312,162.056 105.256,158.186 107.476,153.32C115.564,135.596 135.268,92.417 137.882,86.689C138.068,86.281 138.392,85.951 138.796,85.758C142.909,83.794 166.085,72.714 172.565,69.411C175.502,67.913 178.576,66.174 181.216,64.615C183.66,63.172 186.119,61.736 188.406,60.056C189.548,59.216 191.318,57.778 192.955,56.421C193.945,55.621 194.487,54.39 194.409,53.119C194.33,51.848 193.641,50.694 192.559,50.022C190.318,48.569 187.683,46.941 185.784,46.05C185.784,46.05 185.784,46.049 185.783,46.049C176.26,41.577 165.264,41.466 155.652,45.745C126.298,58.814 57.015,89.659 39.212,97.585C36.608,98.744 33.578,98.378 31.325,96.631C26.984,93.266 19.747,87.655 15.066,84.026C12.285,81.869 8.557,81.378 5.312,82.741C5.064,82.845 4.817,82.949 4.576,83.05C3.724,83.408 3.051,84.094 2.709,84.953C2.368,85.812 2.386,86.773 2.76,87.619C6.722,96.576 17.61,121.192 17.61,121.192C17.61,121.192 17.61,121.192 17.61,121.193C23.222,125.252 30.265,126.805 37.064,125.481C38.636,125.175 39.74,124.96 39.74,124.96L49.933,122.699L64.901,118.073C64.901,118.073 98.247,104.235 100.627,103.247Z"/>
    <path d="M70.133,75.297L98.068,62.567L63.48,51.622C63.48,51.622 61.018,51.244 58.348,50.833C54.054,50.173 49.661,50.874 45.786,52.84C44.044,53.724 42.284,54.617 41.07,55.233C40.748,55.396 40.539,55.719 40.523,56.08C40.506,56.44 40.685,56.782 40.99,56.974C47.139,60.84 70.133,75.297 70.133,75.297Z"/>
</svg>
