<?xml version="1.0" encoding="utf-8"?>
<!-- Generator: Adobe Illustrator 25.0.0, SVG Export Plug-In . SVG Version: 6.00 Build 0)  -->
<svg version="1.1" xmlns="http://www.w3.org/2000/svg" xmlns:xlink="http://www.w3.org/1999/xlink" x="0px" y="0px"
	 viewBox="0 0 528.7 158.8" style="enable-background:new 0 0 528.7 158.8;" xml:space="preserve">
<style type="text/css">
	.st0{display:none;}
	.st1{display:inline;}
	.st2{fill:none;stroke:#939598;stroke-width:0.25;stroke-miterlimit:10;stroke-dasharray:1,1;}
	.st3{fill:none;stroke:#939598;stroke-width:0.25;stroke-miterlimit:10;}
	.st4{fill:none;stroke:#939598;stroke-width:0.25;stroke-miterlimit:10;stroke-dasharray:1.0125,1.0125;}
	.st5{display:inline;fill:none;stroke:#939598;stroke-width:0.25;stroke-miterlimit:10;stroke-dasharray:1,1;}
	.st6{fill:#FFFFFF;}
	.st7{fill:none;stroke:#939598;stroke-width:0.75;stroke-miterlimit:10;}
	.st8{fill:none;stroke:#939598;stroke-width:0.5;stroke-miterlimit:10;}
	.st9{fill:none;stroke:#939598;stroke-width:0.5;stroke-miterlimit:10;stroke-dasharray:1.0125,1.0125;}
	.st10{fill:none;}
	.st11{display:inline;fill:none;stroke:#939598;stroke-width:0.5;stroke-miterlimit:10;stroke-dasharray:1,1;}
	.st12{display:inline;fill:none;stroke:#939598;stroke-width:0.3585;stroke-miterlimit:10;}
	.st13{display:inline;fill:none;stroke:#939598;stroke-width:0.503;stroke-miterlimit:10;stroke-dasharray:1.006,1.006;}
	.st14{fill:none;stroke:#939598;stroke-width:0.5;stroke-miterlimit:10;stroke-dasharray:1,1;}
	.st15{fill:none;stroke:#939598;stroke-width:0.3585;stroke-miterlimit:10;}
	.st16{fill:none;stroke:#939598;stroke-width:0.503;stroke-miterlimit:10;stroke-dasharray:1.006,1.006;}
	.st17{display:inline;opacity:0.5;}
	.st18{fill:#B9A4EE;}
	.st19{display:inline;fill:none;}
	.st20{display:inline;fill:#FFFFFF;}
	.st21{display:inline;fill:none;stroke:#46EBC8;stroke-miterlimit:10;}
	.st22{display:inline;fill:none;stroke:#FF00A4;stroke-miterlimit:10;}
	.st23{fill:#939598;}
	.st24{fill:#46EBC8;}
	.st25{fill:#FF0096;}
	.st26{fill:url(#SVGID_1_);}
	.st27{fill:url(#SVGID_2_);}
	.st28{fill:#FF00A4;}
	.st29{fill:url(#SVGID_3_);}
	.st30{fill:url(#SVGID_4_);}
	.st31{fill:url(#SVGID_5_);}
	.st32{fill:url(#SVGID_6_);}
</style>
<g id="griglia" class="st0">
	<g class="st1">
		<circle class="st6" cx="140.1" cy="79.4" r="29.9"/>
		<path class="st7" d="M114.3,105.2c-14.2-14.2-14.2-37.3,0-51.5s37.3-14.2,51.5,0c14.2,14.2,14.2,37.3,0,51.5
			C151.6,119.4,128.5,119.4,114.3,105.2z M156.6,62.9c-9.1-9.1-24-9.1-33.2,0s-9.1,24,0,33.2s24,9.1,33.2,0
			C165.8,86.9,165.8,72,156.6,62.9z"/>
	</g>
	<g class="st1">
		<g>
			<polyline class="st8" points="140.4,130.6 140.1,131 139.7,130.6 			"/>
			<line class="st9" x1="139" y1="129.9" x2="89.2" y2="80.2"/>
			<polyline class="st8" points="88.9,79.8 88.5,79.4 88.9,79.1 			"/>
			<line class="st9" x1="89.6" y1="78.4" x2="139.3" y2="28.6"/>
			<polyline class="st8" points="139.7,28.3 140.1,27.9 140.4,28.3 			"/>
			<line class="st9" x1="141.1" y1="29" x2="190.9" y2="78.7"/>
			<polyline class="st8" points="191.2,79.1 191.6,79.4 191.2,79.8 			"/>
			<line class="st9" x1="190.5" y1="80.5" x2="140.8" y2="130.3"/>
		</g>
	</g>
	<g class="st1">
		<circle class="st10" cx="79.4" cy="79.4" r="29.9"/>
		<path class="st7" d="M53.6,105.2c-14.2-14.2-14.2-37.3,0-51.5s37.3-14.2,51.5,0c14.2,14.2,14.2,37.3,0,51.5S67.8,119.4,53.6,105.2
			z M96,62.9c-9.1-9.1-24-9.1-33.2,0s-9.1,24,0,33.2s24,9.1,33.2,0S105.1,72,96,62.9z"/>
	</g>
	<g class="st1">
		<g>
			<polyline class="st8" points="79.7,130.6 79.4,131 79,130.6 			"/>
			<line class="st9" x1="78.3" y1="129.9" x2="28.6" y2="80.2"/>
			<polyline class="st8" points="28.2,79.8 27.9,79.4 28.2,79.1 			"/>
			<line class="st9" x1="28.9" y1="78.4" x2="78.7" y2="28.6"/>
			<polyline class="st8" points="79,28.3 79.4,27.9 79.7,28.3 			"/>
			<line class="st9" x1="80.5" y1="29" x2="130.2" y2="78.7"/>
			<polyline class="st8" points="130.6,79.1 130.9,79.4 130.6,79.8 			"/>
			<line class="st9" x1="129.9" y1="80.5" x2="80.1" y2="130.3"/>
		</g>
	</g>
	<line class="st11" x1="79.4" y1="27.9" x2="79.4" y2="131"/>
	<polyline class="st11" points="27.9,79.4 130.9,79.4 191.6,79.4 	"/>
	<line class="st11" x1="140.1" y1="27.9" x2="140.1" y2="131"/>
	<line class="st12" x1="485.7" y1="58" x2="140.1" y2="58"/>
	<line class="st12" x1="485.7" y1="100.9" x2="140.1" y2="100.9"/>
</g>
<g id="area_di_rispetto" class="st0">
	<g class="st17">
		<g>
			<path class="st18" d="M0,0v158.8h528.7V0H0z M485.7,115.9H43V43h442.8V115.9z"/>
		</g>
	</g>
	<path class="st20" d="M0,74v-7.9h43V74H26.7c2.3,1.9,3.2,5.1,3.2,7.9c0,7.4-5.2,10.9-11.6,10.9H0v-7.9h17c3.3,0,5.8-1.6,5.8-5.4
		c0-3.3-2.5-5.3-5.7-5.5H0z"/>
	<path class="st20" d="M50.8,158.8h-7.9v-43h7.9v16.2c1.9-2.3,5.1-3.2,7.9-3.2c7.4,0,10.9,5.2,10.9,11.6v18.4h-7.9v-17
		c0-3.3-1.6-5.8-5.4-5.8c-3.3,0-5.3,2.5-5.5,5.7V158.8z"/>
</g>
<g id="logo">
	<g>
		<path class="st10" d="M79.4,58c-5.7,0-11.1,2.2-15.2,6.3c-8.4,8.4-8.4,22,0,30.3c4.1,4.1,9.4,6.3,15.2,6.3
			c5.7,0,11.1-2.2,15.2-6.3l4.6-4.6L88.5,79.4l10.6-10.6l-4.6-4.6C90.5,60.2,85.1,58,79.4,58z"/>
		<path class="st10" d="M120.3,90l4.6,4.6c4.1,4.1,9.4,6.3,15.2,6.3s11.1-2.2,15.2-6.3c4.1-4.1,6.3-9.4,6.3-15.2
			c0-5.7-2.2-11.1-6.3-15.2c-4.1-4.1-9.4-6.3-15.2-6.3s-11.1,2.2-15.2,6.3l-4.6,4.6l10.6,10.6L120.3,90z"/>
		<path class="st24" d="M120.3,68.8l-10.6,10.6L99.1,90l-4.6,4.6c-4.1,4.1-9.4,6.3-15.2,6.3c-5.7,0-11.1-2.2-15.2-6.3
			c-8.4-8.4-8.4-22,0-30.3c4.1-4.1,9.4-6.3,15.2-6.3s11.1,2.2,15.2,6.3l4.6,4.6l10.6-10.6l-4.6-4.6C98.1,46.5,88.7,43,79.4,43
			c-9.3,0-18.7,3.6-25.8,10.7c-14.2,14.2-14.2,37.3,0,51.5c7.1,7.1,16.4,10.7,25.8,10.7c9.3,0,18.7-3.6,25.8-10.7l4.6-4.6L120.3,90
			l10.6-10.6L120.3,68.8z"/>
		<path class="st28" d="M165.8,53.6c-7.1-7.1-16.4-10.7-25.8-10.7c-9.3,0-18.7,3.6-25.8,10.7l-4.6,4.6L99.1,68.8L88.5,79.4L99.1,90
			l10.6-10.6l0,0l0,0l10.6-10.6l4.6-4.6c4.1-4.1,9.4-6.3,15.2-6.3s11.1,2.2,15.2,6.3c4.1,4.1,6.3,9.4,6.3,15.2
			c0,5.7-2.2,11.1-6.3,15.2c-4.1,4.1-9.4,6.3-15.2,6.3s-11.1-2.2-15.2-6.3l-4.6-4.6l-10.6,10.6l4.6,4.6c7.1,7.1,16.4,10.7,25.8,10.7
			c9.3,0,18.7-3.6,25.8-10.7C180.1,91,180.1,67.9,165.8,53.6z"/>
		<g>
			<path d="M225.5,71.1c-0.4-2.3-2.3-5.9-7.7-5.9c-4,0-6.6,2.6-6.6,5.3c0,2.3,1.5,4.2,4.6,4.7l5.9,1.1c7.7,1.5,11.8,6.5,11.8,12.4
				c0,6.5-5.4,13-15.2,13c-11.2,0-16.1-7.2-16.7-13.2l7.6-2c0.4,4.2,3.3,7.9,9.2,7.9c4.4,0,6.8-2.2,6.8-5.2c0-2.4-1.8-4.3-5.1-5
				l-5.9-1.2c-6.7-1.4-11-5.7-11-12c0-7.5,6.7-13.2,14.7-13.2c10.2,0,14.1,6.2,15.1,10.9L225.5,71.1z"/>
			<path d="M247.4,100.9h-7.9V58h7.9v16.2c1.9-2.3,5.1-3.2,7.9-3.2c7.4,0,10.9,5.2,10.9,11.6v18.4h-7.9v-17c0-3.3-1.6-5.8-5.4-5.8
				c-3.3,0-5.3,2.5-5.5,5.7V100.9z"/>
			<path d="M278.1,57.3c2.7,0,4.9,2.2,4.9,4.9c0,2.6-2.1,4.8-4.9,4.8c-2.7,0-4.9-2.2-4.9-4.8C273.2,59.4,275.4,57.3,278.1,57.3z
				 M274.1,100.9V71.7h7.9v29.2H274.1z"/>
			<path d="M290.5,114.1V71.7h7.7v3.6c1.3-2.3,4.6-4.2,9-4.2c8.5,0,13.5,6.5,13.5,15.2c0,8.8-5.5,15.4-13.8,15.4c-4,0-7-1.6-8.4-3.6
				v16H290.5z M305.5,78.1c-4,0-7.3,3-7.3,8.2c0,5.2,3.3,8.2,7.3,8.2s7.2-3,7.2-8.2C312.8,81.2,309.6,78.1,305.5,78.1z"/>
			<path d="M326.8,114.1V71.7h7.7v3.6c1.3-2.3,4.6-4.2,9-4.2c8.5,0,13.5,6.5,13.5,15.2c0,8.8-5.5,15.4-13.8,15.4c-4,0-7-1.6-8.4-3.6
				v16H326.8z M341.8,78.1c-4,0-7.3,3-7.3,8.2c0,5.2,3.3,8.2,7.3,8.2s7.2-3,7.2-8.2C349.1,81.2,345.9,78.1,341.8,78.1z"/>
			<path d="M407.7,85.1v15.8h-8.2V58.9h15.7c8.3,0,13.8,5.5,13.8,13.1c0,7.7-5.5,13.1-13.8,13.1H407.7z M414.3,78
				c4.1,0,6.6-2.4,6.6-6c0-3.7-2.5-6.1-6.6-6.1h-6.5v12H414.3z"/>
			<path d="M452,79.6c-0.9-0.2-1.7-0.2-2.4-0.2c-4,0-7.5,2-7.5,8.2v13.4h-7.9V71.7h7.7v4.3c1.8-3.9,5.8-4.6,8.3-4.6
				c0.7,0,1.2,0.1,1.8,0.1V79.6z"/>
			<path d="M485.7,86.3c0,9-6.6,15.5-15.3,15.5c-8.7,0-15.3-6.5-15.3-15.5c0-9,6.6-15.5,15.3-15.5C479.1,70.8,485.7,77.3,485.7,86.3
				z M477.8,86.3c0-5.5-3.6-8.3-7.4-8.3c-3.9,0-7.4,2.8-7.4,8.3c0,5.5,3.6,8.3,7.4,8.3C474.2,94.6,477.8,91.8,477.8,86.3z"/>
			<path d="M381.3,71.5v17.1c-0.2,3.2-2.1,5.7-5.5,5.7c-3.8,0-5.4-2.6-5.4-5.8v-17h-7.9v18.4c0,6.4,3.4,11.6,10.9,11.6
				c2.8,0,6-1,7.9-3.2v1.3c0,5.5-3.6,8.3-7.4,8.3h-7.2v7.2h7.2c8.1,0,14.4-5.6,15.2-13.6l0.1-30H381.3z"/>
		</g>
		<linearGradient id="SVGID_1_" gradientUnits="userSpaceOnUse" x1="79.3614" y1="44.0742" x2="103.011" y2="67.7238">
			<stop  offset="0.4096" style="stop-color:#4496A0;stop-opacity:0"/>
			<stop  offset="1" style="stop-color:#4496A0;stop-opacity:0.95"/>
		</linearGradient>
		<path class="st26" d="M105.2,53.6C98.1,46.5,88.7,43,79.4,43c-0.7,0-1.5,0-2.2,0.1c0,0,0,0,0,0v0v3.8v11.3
			c0.8-0.1,1.5-0.1,2.3-0.1c5.7,0,11.1,2.2,15.2,6.3l4.6,4.6l0,0l10.6-10.6L105.2,53.6z"/>
		
			<linearGradient id="SVGID_2_" gradientUnits="userSpaceOnUse" x1="-5502.668" y1="-1674.3757" x2="-5479.0181" y2="-1650.7262" gradientTransform="matrix(-1 0 0 -1 -5362.5576 -1559.6211)">
			<stop  offset="0.4096" style="stop-color:#BE1E2D;stop-opacity:0"/>
			<stop  offset="1" style="stop-color:#BE1E2D;stop-opacity:0.95"/>
		</linearGradient>
		<path class="st27" d="M114.3,105.2c7.1,7.1,16.4,10.7,25.8,10.7c0.7,0,1.5,0,2.2-0.1c0,0,0,0,0,0v0V112v-11.3
			c-0.8,0.1-1.5,0.1-2.3,0.1c-5.7,0-11.1-2.2-15.2-6.3l-4.6-4.6l0,0l-10.6,10.6L114.3,105.2z"/>
	</g>
</g>
</svg>
