<?xml version="1.0" encoding="UTF-8" standalone="no"?>
<!DOCTYPE svg PUBLIC "-//W3C//DTD SVG 1.1//EN" "http://www.w3.org/Graphics/SVG/1.1/DTD/svg11.dtd">
<svg width="100%" height="100%" viewBox="0 0 196 196" version="1.1" style="fill-rule:evenodd;clip-rule:evenodd;stroke-linejoin:round;stroke-miterlimit:2;">
    <g transform="matrix(2.90662,0,0,2.90662,-128.039,-195.169)">
        <path d="M50.069,94.587C57.349,87.087 67.355,82.855 77.807,82.855C88.259,82.855 98.266,87.087 105.545,94.587C107.193,96.285 108.604,97.738 109.652,98.818C110.756,99.955 110.756,101.763 109.652,102.9C108.604,103.979 107.193,105.433 105.545,107.131C98.266,114.63 88.259,118.863 77.807,118.863C67.355,118.863 57.349,114.63 50.069,107.131C48.421,105.433 47.01,103.979 45.962,102.9C44.859,101.763 44.859,99.955 45.962,98.818C47.01,97.738 48.421,96.285 50.069,94.587ZM77.5,87.321C84.951,87.321 91,93.374 91,100.83C91,108.286 84.951,114.34 77.5,114.34C70.05,114.34 64,108.286 64,100.83C64,93.374 70.05,87.321 77.5,87.321ZM77.5,92.952C81.846,92.952 85.373,96.482 85.373,100.83C85.373,105.178 81.846,108.709 77.5,108.709C73.155,108.709 69.628,105.178 69.628,100.83C69.628,96.482 73.155,92.952 77.5,92.952Z"/>
    </g>
</svg>
